<svg xmlns="http://www.w3.org/2000/svg" xmlns:xlink="http://www.w3.org/1999/xlink" width="481.78" height="125.426" viewBox="0 0 481.78 125.426"><path fill="#5C6E7B" d="M170.95 79.156L160.208 48.74c-.227-.606-.455-1.588-.455-2.347 0-2.193 1.74-4.236 4.465-4.236 2.268 0 3.782 1.514 4.464 3.633l7.718 24.212 7.793-24.212c.683-2.12 2.347-3.633 4.692-3.633h.53c2.346 0 4.01 1.514 4.692 3.633l7.868 24.212 7.795-24.29c.603-1.964 2.043-3.555 4.462-3.555 2.497 0 4.312 1.966 4.312 4.236 0 .68-.227 1.59-.378 2.042l-10.896 30.72c-.984 2.8-2.875 4.088-5.068 4.088h-.305c-2.27 0-4.16-1.287-4.993-3.936L189.11 55.55l-7.87 23.757c-.832 2.65-2.722 3.936-4.918 3.936h-.303c-2.27 0-4.16-1.287-5.07-4.087M229.72 27.404c-2.587 0-4.575 1.74-4.575 4.463v.454c0 2.724 1.988 4.54 4.575 4.54 2.586 0 4.576-1.816 4.576-4.54v-.453c0-2.723-1.99-4.463-4.576-4.463M229.684 42.157c-2.575 0-4.54 2.043-4.54 4.615V78.4c0 2.57 2.04 4.54 4.54 4.54 2.572 0 4.612-1.97 4.612-4.54V46.77c0-2.572-2.04-4.615-4.612-4.615M244.91 63.114v.152c0 10.14 7.037 16.647 15.135 16.647 8.017 0 15.734-6.733 15.734-16.57v-.153c0-9.913-7.72-16.57-15.735-16.57-8.4.002-15.134 6.13-15.134 16.494m34.352 29.964c0 1.136-.76 1.892-1.815 1.892-1.06 0-1.893-.756-1.893-1.892V73.936c-3.33 5.068-8.247 9.535-15.89 9.535-9.303 0-18.766-7.49-18.766-20.05v-.154c0-12.558 9.462-20.2 18.767-20.2 7.716 0 12.712 4.388 15.89 9.23V45.56c0-1.057.756-1.89 1.814-1.89 1.06 0 1.892.833 1.892 1.89V93.08zM321.568 80.97c0 1.062-.756 1.892-1.816 1.892s-1.892-.755-1.892-1.892v-5.597c-2.57 4.54-6.886 8.097-13.92 8.097-9.76 0-15.436-6.66-15.436-15.89V45.56c0-1.133.755-1.89 1.814-1.89 1.057 0 1.893.757 1.893 1.89v21.337c0 7.946 4.465 13.168 12.258 13.168 7.565 0 13.392-5.75 13.392-13.77V45.56c0-1.133.757-1.89 1.814-1.89 1.062 0 1.894.757 1.894 1.89v35.41zM360.543 68.11v-4.39c-3.25-.833-7.564-1.74-13.09-1.74-8.17 0-12.71 3.633-12.71 9.005v.15c0 5.598 5.298 8.852 11.196 8.852 7.873 0 14.603-4.84 14.603-11.876m-29.733 3.254v-.152c0-8.02 6.887-12.56 16.874-12.56 5.372 0 9.078.68 12.787 1.663V58.65c0-7.79-4.766-11.8-12.71-11.8-4.237 0-7.795 1.06-10.972 2.57-.303.152-.604.23-.834.23-.904 0-1.738-.835-1.738-1.74 0-.91.68-1.517 1.058-1.668 3.932-1.74 7.795-2.874 12.712-2.874 5.22 0 9.383 1.436 12.182 4.238 2.57 2.572 3.936 6.128 3.936 10.896V80.97c0 1.137-.758 1.892-1.814 1.892-1.06 0-1.817-.755-1.817-1.892v-4.84c-2.65 3.71-7.415 7.34-14.753 7.34-7.192 0-14.91-4.085-14.91-12.106M376.034 63.114v.152c0 10.14 7.037 16.647 15.132 16.647 8.02 0 15.738-6.733 15.738-16.57v-.152c0-9.912-7.72-16.568-15.738-16.568-8.395 0-15.132 6.13-15.132 16.492m34.353 17.856c0 1.137-.76 1.892-1.817 1.892-1.06 0-1.89-.755-1.89-1.892v-7.034c-3.33 5.068-8.25 9.534-15.893 9.534-9.304 0-18.762-7.49-18.762-20.05v-.154c0-12.558 9.458-20.2 18.762-20.2 7.72 0 12.71 4.388 15.892 9.23v-23.38c0-1.135.756-1.89 1.815-1.89 1.056 0 1.892.755 1.892 1.89V80.97zM420.95 45.56c0-1.058.755-1.89 1.814-1.89 1.057 0 1.893.757 1.893 1.89v9.384c3.328-7.49 10.063-11.576 15.51-11.576 1.137 0 1.967.906 1.967 2.044 0 1.058-.757 1.966-1.968 2.042-8.172.757-15.51 6.885-15.51 19.296v14.22c0 1.062-.756 1.892-1.813 1.892-1.063 0-1.894-.755-1.894-1.892V45.56zM477.77 63.42v-.154c0-9.305-6.96-16.722-15.893-16.722-9.15 0-15.737 7.492-15.737 16.57v.152c0 9.307 6.966 16.72 15.89 16.72 9.158 0 15.74-7.49 15.74-16.567m-35.637 0v-.154c0-10.82 8.398-20.2 19.898-20.2 11.427 0 19.75 9.228 19.75 20.047v.153c0 10.82-8.398 20.204-19.902 20.204-11.424 0-19.745-9.233-19.745-20.05"/><path fill="#44C8F5" d="M6.602 29.044H72.63c3.645 0 6.6 2.957 6.6 6.602s-2.955 6.602-6.6 6.602H13.206v69.976h69.988V52.81c0-3.646 2.956-6.6 6.602-6.6s6.6 2.954 6.6 6.6v66.014c0 3.646-2.954 6.603-6.6 6.603H6.602c-3.646 0-6.602-2.957-6.602-6.603V35.646C0 32 2.956 29.044 6.602 29.044"/><path fill="#44C8F5" d="M118.826 96.378H52.798c-3.646 0-6.602-2.955-6.602-6.6 0-3.645 2.956-6.603 6.602-6.603h59.424V13.203h-69.99v59.413c0 3.643-2.955 6.597-6.603 6.597-3.647 0-6.602-2.954-6.602-6.597V6.6c0-3.643 2.955-6.6 6.602-6.6h83.196c3.646 0 6.602 2.957 6.602 6.6v83.177c0 3.646-2.956 6.6-6.602 6.6"/><g><defs><path id="a" d="M29.03 42.157H42.23v4.048H29.03z"/></defs><clipPath id="b"><use xlink:href="#a" overflow="visible"/></clipPath><linearGradient id="c" gradientUnits="userSpaceOnUse" x1="-167.167" y1="396.785" x2="-166.167" y2="396.785" gradientTransform="matrix(0 -4.0483 -4.0483 0 1641.936 -630.535)"><stop offset="0" stop-color="#44C8F5"/><stop offset=".215" stop-color="#3DC5F3"/><stop offset=".528" stop-color="#2ABDEF"/><stop offset=".9" stop-color="#0AAFE8"/><stop offset="1" stop-color="#00ABE6"/></linearGradient><path clip-path="url(#b)" fill="url(#c)" d="M29.03 42.157H42.23v4.048H29.03z"/></g><g><defs><path id="d" d="M83.194 96.378h13.204v4.05H83.194z"/></defs><clipPath id="e"><use xlink:href="#d" overflow="visible"/></clipPath><linearGradient id="f" gradientUnits="userSpaceOnUse" x1="-167.206" y1="396.744" x2="-166.205" y2="396.744" gradientTransform="matrix(0 -4.0493 -4.0493 0 1696.333 -576.638)"><stop offset="0" stop-color="#44C8F5"/><stop offset=".215" stop-color="#3DC5F3"/><stop offset=".528" stop-color="#2ABDEF"/><stop offset=".9" stop-color="#0AAFE8"/><stop offset="1" stop-color="#00ABE6"/></linearGradient><path clip-path="url(#e)" fill="url(#f)" d="M83.194 96.378h13.204v4.05H83.194z"/></g></svg>