<?xml version="1.0" encoding="utf-8"?>
<!-- Generator: Adobe Illustrator 18.1.1, SVG Export Plug-In . SVG Version: 6.00 Build 0)  -->
<svg version="1.1" id="Camada_1" xmlns="http://www.w3.org/2000/svg" xmlns:xlink="http://www.w3.org/1999/xlink" x="0px" y="0px"
	 viewBox="0 0 125.4 125.4" enable-background="new 0 0 125.4 125.4" xml:space="preserve">
<g>
	<path fill="#FFFFFF" d="M6.6,29h66c3.6,0,6.6,3,6.6,6.6s-3,6.6-6.6,6.6H13.2v70h70V52.8c0-3.6,3-6.6,6.6-6.6c3.6,0,6.6,3,6.6,6.6
		v66c0,3.6-3,6.6-6.6,6.6H6.6c-3.6,0-6.6-3-6.6-6.6V35.6C0,32,3,29,6.6,29"/>
	<path fill="#FFFFFF" d="M118.8,96.4h-66c-3.6,0-6.6-3-6.6-6.6c0-3.6,3-6.6,6.6-6.6h59.4v-70h-70v59.4c0,3.6-3,6.6-6.6,6.6
		c-3.6,0-6.6-3-6.6-6.6v-66C29,3,32,0,35.6,0h83.2c3.6,0,6.6,3,6.6,6.6v83.2C125.4,93.4,122.5,96.4,118.8,96.4"/>
</g>
<g>
	<defs>
		<rect id="SVGID_1_" x="29" y="42.2" width="13.2" height="4"/>
	</defs>
	<clipPath id="SVGID_2_">
		<use xlink:href="#SVGID_1_"  overflow="visible"/>
	</clipPath>
	
		<linearGradient id="SVGID_3_" gradientUnits="userSpaceOnUse" x1="-167.1681" y1="396.7846" x2="-166.1682" y2="396.7846" gradientTransform="matrix(0 -4.0483 -4.0483 0 1641.9333 -630.5357)">
		<stop  offset="0" style="stop-color:#FFFFFF"/>
		<stop  offset="0.1472" style="stop-color:#F8F8F8"/>
		<stop  offset="0.362" style="stop-color:#E4E5E5"/>
		<stop  offset="0.6181" style="stop-color:#C5C6C7"/>
		<stop  offset="0.9039" style="stop-color:#999A9C"/>
		<stop  offset="1" style="stop-color:#888A8C"/>
	</linearGradient>
	<rect x="29" y="42.2" clip-path="url(#SVGID_2_)" fill="url(#SVGID_3_)" width="13.2" height="4"/>
</g>
<g>
	<defs>
		<rect id="SVGID_4_" x="83.2" y="96.4" width="13.2" height="4"/>
	</defs>
	<linearGradient id="SVGID_5_" gradientUnits="userSpaceOnUse" x1="83.1939" y1="98.4028" x2="96.398" y2="98.4028">
		<stop  offset="0" style="stop-color:#FFFFFF"/>
		<stop  offset="0.1516" style="stop-color:#F8F8F8"/>
		<stop  offset="0.3726" style="stop-color:#E5E5E6"/>
		<stop  offset="0.6363" style="stop-color:#C5C6C7"/>
		<stop  offset="0.9305" style="stop-color:#999B9D"/>
		<stop  offset="1" style="stop-color:#8D9092"/>
	</linearGradient>
	<use xlink:href="#SVGID_4_"  overflow="visible" fill="url(#SVGID_5_)"/>
	<clipPath id="SVGID_6_">
		<use xlink:href="#SVGID_4_"  overflow="visible"/>
	</clipPath>
	
		<linearGradient id="SVGID_7_" gradientUnits="userSpaceOnUse" x1="-167.2058" y1="396.7436" x2="-166.2057" y2="396.7436" gradientTransform="matrix(0 -4.0493 -4.0493 0 1696.3296 -576.6389)">
		<stop  offset="0" style="stop-color:#FFFFFF"/>
		<stop  offset="0.1516" style="stop-color:#F8F8F8"/>
		<stop  offset="0.3726" style="stop-color:#E5E5E6"/>
		<stop  offset="0.6363" style="stop-color:#C5C6C7"/>
		<stop  offset="0.9305" style="stop-color:#999B9D"/>
		<stop  offset="1" style="stop-color:#8D9092"/>
	</linearGradient>
	<rect x="83.2" y="96.4" clip-path="url(#SVGID_6_)" fill="url(#SVGID_7_)" width="13.2" height="4"/>
</g>
</svg>
