<?xml version="1.0" encoding="utf-8"?>
<!-- Generator: Adobe Illustrator 19.0.0, SVG Export Plug-In . SVG Version: 6.00 Build 0)  -->
<svg version="1.0" id="Camada_1" xmlns="http://www.w3.org/2000/svg" xmlns:xlink="http://www.w3.org/1999/xlink" x="0px" y="0px"
	 viewBox="-242 334.6 45 45" style="enable-background:new -242 334.6 45 45;" xml:space="preserve">
<style type="text/css">
	.st0{fill:#FFFFFF;}
	.st1{clip-path:url(#SVGID_2_);fill:url(#SVGID_3_);}
	.st2{fill:url(#SVGID_5_);}
	.st3{clip-path:url(#SVGID_7_);fill:url(#SVGID_8_);}
</style>
<g>
	<g>
		<path class="st0" d="M-239.6,345h23.7c1.3,0,2.4,1.1,2.4,2.4s-1.1,2.4-2.4,2.4h-21.3v25.1h25.1v-21.3c0-1.3,1.1-2.4,2.4-2.4
			c1.3,0,2.4,1.1,2.4,2.4v23.7c0,1.3-1.1,2.4-2.4,2.4h-29.9c-1.3,0-2.4-1.1-2.4-2.4v-29.9C-242,346.1-240.9,345-239.6,345"/>
		<path class="st0" d="M-199.4,369.2h-23.7c-1.3,0-2.4-1.1-2.4-2.4s1.1-2.4,2.4-2.4h21.3v-25.1h-25.1v21.3c0,1.3-1.1,2.4-2.4,2.4
			c-1.3,0-2.4-1.1-2.4-2.4V337c0-1.3,1.1-2.4,2.4-2.4h29.9c1.3,0,2.4,1.1,2.4,2.4v29.9C-197,368.1-198,369.2-199.4,369.2"/>
	</g>
	<g>
		<g>
			<defs>
				<rect id="SVGID_1_" x="-231.6" y="349.7" width="4.7" height="1.4"/>
			</defs>
			<clipPath id="SVGID_2_">
				<use xlink:href="#SVGID_1_"  style="overflow:visible;"/>
			</clipPath>
			
				<linearGradient id="SVGID_3_" gradientUnits="userSpaceOnUse" x1="-725.8592" y1="451.948" x2="-725.5004" y2="451.948" gradientTransform="matrix(0 -4.0483 4.0483 0 -2058.8457 -2587.3127)">
				<stop  offset="0" style="stop-color:#FFFFFF"/>
				<stop  offset="0.1472" style="stop-color:#F8F8F8"/>
				<stop  offset="0.362" style="stop-color:#E4E5E5"/>
				<stop  offset="0.6181" style="stop-color:#C5C6C7"/>
				<stop  offset="0.9039" style="stop-color:#999A9C"/>
				<stop  offset="1" style="stop-color:#888A8C"/>
			</linearGradient>
			<rect x="-231.6" y="349.7" class="st1" width="4.7" height="1.4"/>
		</g>
	</g>
	<g>
		<g>
			
				<linearGradient id="SVGID_5_" gradientUnits="userSpaceOnUse" x1="-212.1435" y1="427.289" x2="-207.4067" y2="427.289" gradientTransform="matrix(1 0 0 -1 0 797.2)">
				<stop  offset="0" style="stop-color:#FFFFFF"/>
				<stop  offset="0.1516" style="stop-color:#F8F8F8"/>
				<stop  offset="0.3726" style="stop-color:#E5E5E6"/>
				<stop  offset="0.6363" style="stop-color:#C5C6C7"/>
				<stop  offset="0.9305" style="stop-color:#999B9D"/>
				<stop  offset="1" style="stop-color:#8D9092"/>
			</linearGradient>
			<rect id="SVGID_4_" x="-212.1" y="369.2" class="st2" width="4.7" height="1.4"/>
		</g>
		<g>
			<defs>
				<rect id="SVGID_6_" x="-212.1" y="369.2" width="4.7" height="1.4"/>
			</defs>
			<clipPath id="SVGID_7_">
				<use xlink:href="#SVGID_6_"  style="overflow:visible;"/>
			</clipPath>
			
				<linearGradient id="SVGID_8_" gradientUnits="userSpaceOnUse" x1="-717.294" y1="443.4023" x2="-716.9351" y2="443.4023" gradientTransform="matrix(0 -4.0493 4.0493 0 -2005.2444 -2533.9001)">
				<stop  offset="0" style="stop-color:#FFFFFF"/>
				<stop  offset="0.1516" style="stop-color:#F8F8F8"/>
				<stop  offset="0.3726" style="stop-color:#E5E5E6"/>
				<stop  offset="0.6363" style="stop-color:#C5C6C7"/>
				<stop  offset="0.9305" style="stop-color:#999B9D"/>
				<stop  offset="1" style="stop-color:#8D9092"/>
			</linearGradient>
			<rect x="-212.1" y="369.2" class="st3" width="4.7" height="1.4"/>
		</g>
	</g>
</g>
</svg>
